<?xml version="1.0" encoding="UTF-8"?>
<svg id="_图层_1" data-name="图层 1" xmlns="http://www.w3.org/2000/svg" viewBox="0 0 511.37 520.16">
  <defs>
    <style>
      .cls-1 {
        fill: #dba05d;
      }

      .cls-1, .cls-2, .cls-3, .cls-4, .cls-5, .cls-6, .cls-7, .cls-8, .cls-9, .cls-10, .cls-11, .cls-12, .cls-13, .cls-14, .cls-15, .cls-16, .cls-17 {
        stroke-width: 0px;
      }

      .cls-2 {
        fill: #ecc704;
      }

      .cls-3 {
        fill: #d6d7d9;
      }

      .cls-4 {
        fill: #e89b05;
      }

      .cls-5 {
        fill: #bb891d;
      }

      .cls-6 {
        fill: #a05a2c;
      }

      .cls-7 {
        fill: #eee;
      }

      .cls-7, .cls-11, .cls-13, .cls-17 {
        isolation: isolate;
      }

      .cls-7, .cls-13 {
        opacity: .73;
      }

      .cls-8 {
        fill: #f3d056;
      }

      .cls-9 {
        fill: #ffd15c;
      }

      .cls-10 {
        fill: #d4aa00;
      }

      .cls-11 {
        opacity: .15;
      }

      .cls-12 {
        fill: #a4a5aa;
      }

      .cls-13 {
        fill: #efefef;
      }

      .cls-14 {
        opacity: .15;
      }

      .cls-15 {
        opacity: .1;
      }

      .cls-16 {
        fill: #eead04;
      }

      .cls-17 {
        opacity: .1;
      }
    </style>
  </defs>
  <path class="cls-17" d="M4.08,14.26l1.15,1.15,31.19,139.29,140.44,119.52-64.85,76.44-1.2-1.2-20.29,20.29-1.01-19.85,10.81-10.92-1.5-23.2-18.88-18.82-23.36-1.47h-.03l-10.69,10.69-10.77,10.8h-.03l-5.39,5.42,8.48,40.96,41.92,41.92c-4.7,5.23-9.11,10.51-13.16,15.74-.19.25-.38.51-.57.76-1.52,1.96-2.99,3.9-4.41,5.83-.04.05-.07.11-.11.16-6.65,9.21-11.89,17.93-15.41,25.66-.02.04-.04.09-.05.13-1.06,2.34-1.96,4.58-2.68,6.7-10.77-3.22-22.43-.28-30.38,7.66-11.95,11.95-11.96,31.32,0,43.27,0,0,0,0,0,0,11.95,11.94,31.31,11.94,43.25,0,7.84-7.83,10.83-19.29,7.82-29.96.77-.25,1.55-.53,2.35-.83.53-.21,1.06-.43,1.6-.65,1.33-.53,2.69-1.13,4.09-1.78.78-.37,1.57-.77,2.38-1.17,1-.49,2.01-1.01,3.04-1.56h.03c7.12-3.84,14.84-8.88,22.84-14.91.24-.18.47-.36.71-.55,1.53-1.17,3.07-2.37,4.62-3.6,1.3-1.02,2.61-2.06,3.91-3.12,3.2-2.66,6.39-5.44,9.56-8.32l42.27,42.27,40.92,8.53,13.22-13.22,13.95-13.62-1.51-23.34-19.04-19.01-22.89-1.34-11.13,10.72-19.56-1.31,20-20.02-.72-.73,82.84-70.5,82.65,70.31-.73.73,20.02,20.02-19.54,1.31-11.16-10.72-22.89,1.31-19.04,19.04-1.51,23.31,13.95,13.62,13.22,13.24,40.9-8.53,42.27-42.27c3.25,2.94,6.51,5.77,9.79,8.48,1.03.85,2.07,1.69,3.1,2.51,1.9,1.53,3.8,3,5.69,4.43.21.15.42.29.63.44,2.18,1.64,4.35,3.2,6.49,4.69,6.66,4.63,13.03,8.48,18.9,11.43.93.48,1.86.94,2.76,1.38,1.16.54,2.3,1.04,3.42,1.5.7.3,1.4.59,2.08.87.78.29,1.55.56,2.3.8-3.02,10.66-.03,22.12,7.8,29.96,11.95,11.95,31.32,11.96,43.27,0h0c11.95-11.96,11.96-31.33,0-43.28h0c-7.95-7.95-19.61-10.89-30.37-7.68-3.17-9.19-9.43-20.38-18.16-32.45-.07-.09-.13-.18-.2-.27-1.51-2.08-3.1-4.19-4.74-6.3-.02,0-.04,0-.05,0-4.08-5.28-8.53-10.61-13.27-15.89l41.92-41.92,8.5-40.96-5.45-5.46-10.77-10.79-10.68-10.69-23.4,1.48-18.85,18.85-1.54,23.22,10.81,10.92-1.01,19.84-20.29-20.29-1.21,1.24-64.67-76.23,140.28-119.35,31.21-139.31c.36-.36.77-.8,1.15-1.15l-.93.21.03-.16-1.52.49-139.41,32.12-111.75,131.7L145.89,47.06,6.51,14.93l-1.52-.49.03.16-.93-.21v-.12Z"/>
  <path class="cls-11" d="M4.08,7.45l1.15,1.15,31.19,139.28,140.44,119.52-64.85,76.45-1.2-1.2-20.29,20.29-1.01-19.85,10.81-10.92-1.5-23.22-18.88-18.82-23.36-1.47h-.03l-10.69,10.71-10.77,10.79h-.03l-5.39,5.42,8.48,40.97,41.92,41.92c-4.7,5.22-9.11,10.5-13.16,15.73-.19.25-.38.51-.57.76-1.52,1.96-2.99,3.91-4.41,5.85-.04.05-.07.11-.11.16-6.65,9.21-11.89,17.93-15.41,25.66-.02.04-.04.09-.05.13-1.06,2.34-1.95,4.57-2.68,6.69-10.77-3.22-22.43-.27-30.38,7.68-11.95,11.95-11.96,31.32,0,43.27,0,0,0,0,0,0,11.95,11.94,31.31,11.94,43.25,0,7.84-7.83,10.83-19.29,7.82-29.96.77-.25,1.55-.53,2.35-.83.53-.21,1.06-.44,1.6-.67,1.32-.53,2.69-1.12,4.09-1.76.78-.37,1.57-.77,2.38-1.17,1-.49,2.01-1.01,3.04-1.56h.03c7.12-3.84,14.85-8.89,22.84-14.93.24-.18.47-.36.71-.53,1.53-1.17,3.07-2.37,4.62-3.6,1.3-1.02,2.61-2.06,3.91-3.12,3.2-2.67,6.39-5.45,9.56-8.33l42.27,42.27,40.92,8.54,13.22-13.23,13.95-13.62-1.51-23.34-19.04-19-22.89-1.34-11.13,10.71-19.56-1.31,20-20.02-.72-.73,82.84-70.49,82.65,70.31-.73.73,20.02,20.02-19.54,1.31-11.16-10.72-22.89,1.31-19.04,19.04-1.51,23.31,13.95,13.62,13.22,13.24,40.9-8.53,42.27-42.27c3.25,2.94,6.51,5.77,9.79,8.48,1.03.85,2.07,1.68,3.1,2.5,1.9,1.53,3.8,3,5.69,4.43.21.15.42.29.63.44,2.18,1.64,4.35,3.21,6.49,4.7,6.66,4.62,13.03,8.47,18.9,11.41.93.49,1.86.95,2.76,1.39,1.16.53,2.3,1.03,3.42,1.48.7.3,1.4.59,2.08.87.78.29,1.55.56,2.3.8-3.02,10.66-.03,22.12,7.8,29.96,11.95,11.95,31.32,11.96,43.27,0h0c11.95-11.96,11.96-31.33,0-43.28h0c-7.95-7.94-19.61-10.88-30.37-7.67-3.17-9.19-9.43-20.39-18.16-32.47-.07-.08-.13-.17-.2-.25-1.51-2.09-3.09-4.2-4.74-6.31-.02,0-.04,0-.05,0-4.08-5.27-8.53-10.6-13.27-15.87l41.92-41.92,8.5-40.97-5.45-5.45-10.77-10.8-10.68-10.68-23.4,1.47-18.85,18.86-1.54,23.2,10.81,10.93-1.01,19.84-20.29-20.29-1.21,1.23-64.67-76.21,140.28-119.36,31.21-139.29,1.15-1.15-.93.21.03-.16-1.52.49-139.41,32.15-111.75,131.7L145.89,40.26,6.51,8.13l-1.52-.49.03.16-.93-.21v-.13Z"/>
  <path class="cls-1" d="M384.23,420.95c36.95,36.97,75.89,58,86.97,46.97,11.08-11.03-9.9-49.94-46.85-86.91-.03-.03-.06-.06-.09-.09-36.95-36.97-75.89-58-86.97-46.97-11.08,11.03,9.9,49.94,46.85,86.91.03.03.06.06.09.09Z"/>
  <path class="cls-3" d="M47.72,129.02L5.07,1.59l140.38,31.43,294.51,346.03-56.52,56.78L47.72,129.02Z"/>
  <path class="cls-6" d="M420.23,376.99l-15.46,62.72c4.55,3.79,9.09,7.31,13.55,10.54l14.83-60.01c-2.88-3.15-5.85-6.27-8.89-9.33-1.33-1.32-2.67-2.62-4.02-3.92ZM443.56,402.13l-13.75,55.86c5.03,3.11,9.82,5.7,14.26,7.7l11.73-47.47c-3.65-5.26-7.76-10.66-12.24-16.09h0ZM465.75,434.21l-8.85,35.9c6.55,1.36,11.42.6,14.29-2.24,5.26-5.32,3.31-17.42-5.44-33.66Z"/>
  <path class="cls-5" d="M486.66,513.81c5.57,5.58,14.62,5.59,20.2.02,5.58-5.57,5.59-14.62.02-20.2,0,0-.01-.01-.02-.02-5.57-5.58-14.62-5.59-20.2-.02-5.58,5.57-5.59,14.62-.02,20.2,0,0,.01.01.02.02Z"/>
  <path class="cls-12" d="M5.02.68l32.68,141.82,345.74,293.33,28.46-28.59C282.63,279.69,134.95,130.82,5.02.68Z"/>
  <path class="cls-10" d="M340.02,401.24l64.91-64.91,32.46,32.46-64.91,64.91-32.46-32.46Z"/>
  <path class="cls-8" d="M372.48,368.79l32.46,32.46,32.46-32.46-32.46-32.46-32.46,32.46Z"/>
  <path class="cls-13" d="M138.28,50.68l253.4,288.09-17.18,16.31L55.37,30.92s60.69,14.35,82.92,19.76Z"/>
  <path class="cls-10" d="M287.47,432.11l-1.49,23.39,21.5,21.5.03-.03,5.43,5.43,40.98-8.48,123.63-123.63,8.51-40.91-13.22-13.22-13.62-13.95-23.3,1.51-19.04,19.04-1.3,22.89,10.71,11.14-1.54,23.02-61.13,61.52-23.15,1.21-10.93-10.84-23.21,1.53-18.87,18.87Z"/>
  <path class="cls-5" d="M287.47,432.11l-1.48,23.38,21.49,21.49.02-.02,5.43,5.43,40.97-8.47,61.7-61.7-21.51-21.51-30.47,30.64-23.14,1.2-10.95-10.82-23.2,1.51-18.87,18.87h0Z"/>
  <path class="cls-10" d="M491.84,507.05c3.45,3.45,9.05,3.45,12.5,0,3.45-3.45,3.45-9.05,0-12.5-3.45-3.45-9.05-3.45-12.5,0-3.45,3.45-3.45,9.05,0,12.5Z"/>
  <path class="cls-1" d="M130.42,420.27c-36.96,36.97-75.89,57.99-86.96,46.95-11.07-11.04,9.92-49.95,46.87-86.92.02-.02.04-.04.06-.06,36.96-36.97,75.89-57.99,86.96-46.95,11.07,11.04-9.92,49.95-46.87,86.92-.02.02-.04.04-.06.06Z"/>
  <path class="cls-3" d="M466.94,128.33L509.58.91l-140.38,31.43L74.7,378.37l56.52,56.78L466.94,128.33Z"/>
  <path class="cls-6" d="M94.42,376.3l15.46,62.72c-4.55,3.79-9.09,7.31-13.55,10.54l-14.83-60.01c2.88-3.15,5.85-6.27,8.89-9.33,1.33-1.32,2.67-2.62,4.02-3.92h0ZM71.09,401.45l13.75,55.86c-5.03,3.11-9.82,5.7-14.26,7.7l-11.73-47.47c3.65-5.26,7.76-10.66,12.24-16.09h0ZM48.9,433.52l8.85,35.9c-6.55,1.36-11.42.6-14.29-2.24-5.26-5.32-3.31-17.42,5.44-33.66Z"/>
  <path class="cls-5" d="M24.39,510.59c-5.58,5.58-14.62,5.59-20.2.01-5.58-5.58-5.59-14.62-.01-20.2,0,0,0,0,.01-.01,5.58-5.58,14.62-5.59,20.2-.01,5.58,5.58,5.59,14.62.01,20.2,0,0,0,0-.01.01Z"/>
  <path class="cls-12" d="M509.63,0l-32.68,141.82L131.2,435.16l-28.46-28.59C232.02,279.01,379.7,130.14,509.63,0h0Z"/>
  <path class="cls-10" d="M174.63,400.56l-64.91-64.91-32.46,32.46,64.91,64.91,32.46-32.46Z"/>
  <path class="cls-8" d="M142.17,368.1l-32.46,32.46-32.46-32.46,32.46-32.46,32.46,32.46Z"/>
  <path class="cls-7" d="M376.37,49.99L122.97,338.08l17.18,16.31L459.29,30.24s-60.69,14.35-82.92,19.76Z"/>
  <path class="cls-10" d="M227.18,431.43l1.49,23.39-21.5,21.5-.03-.03-5.43,5.43-40.98-8.48-123.63-123.63-8.51-40.91,13.22-13.22,13.62-13.95,23.3,1.51,19.04,19.04,1.3,22.89-10.71,11.14,1.54,23.02,61.13,61.52,23.15,1.21,10.93-10.84,23.21,1.53,18.87,18.87Z"/>
  <path class="cls-5" d="M227.18,431.43l1.48,23.38-21.49,21.49-.02-.02-5.43,5.43-40.97-8.47-61.7-61.7,21.51-21.51,30.47,30.64,23.14,1.2,10.95-10.82,23.2,1.51,18.87,18.87h0Z"/>
  <path class="cls-15" d="M73.57,98.16l6.86,10.79-12.51.61c-.21-4.56,1.94-8.9,5.65-11.4ZM249.52,50.9l-.5-12.89h-.18l-.41.03-1.5.08c-1.83.11-3.66.25-5.49.41-6.51.56-13.01,1.31-19.48,2.23-16.13,2.29-38.01,6.45-60.82,13.98-22.93,7.57-44.81,18.45-60.82,27.32-6.53,3.62-12.98,7.4-19.33,11.34-2.31,1.44-4.6,2.9-6.88,4.4l-.39.26-.11.08-.04.03,6.86,10.8-12.51.61v.11s.02.26.02.26c.08,1.57.17,3.13.28,4.7.21,3.2.54,7.8,1.04,13.49,1,11.38,2.68,27.18,5.4,44.85,5.37,34.88,15.02,78.81,32.5,110.11,18.54,33.24,53.11,65.16,81.86,88.22,12.29,9.84,24.91,19.23,37.83,28.16,5.22,3.61,10.51,7.13,15.84,10.56l.23.15.09.05s0,0,6.51-11.02l-6.51,11.02c4,2.5,9.02,2.5,13.02,0l-6.51-11.02,6.51,11.03h0s.09-.06.09-.06l.23-.15c1.38-.87,2.76-1.76,4.12-2.66,3.94-2.58,7.85-5.22,11.72-7.9,12.92-8.93,25.54-18.33,37.83-28.17,28.76-23.06,63.31-54.97,81.87-88.21,17.47-31.31,27.13-75.23,32.5-110.11,2.72-17.67,4.4-33.46,5.4-44.85.53-6.06.97-12.12,1.32-18.19v-.26s.01-.1.01-.1l-12.51-.62,12.51.62c.21-4.57-1.94-8.91-5.65-11.42l-6.86,10.8,6.86-10.79h0l-.04-.03-.11-.08-.39-.26c-2.27-1.5-4.57-2.96-6.88-4.4-6.35-3.94-12.8-7.72-19.33-11.34-16.01-8.87-37.89-19.74-60.82-27.32-22.81-7.53-44.69-11.69-60.82-13.98-6.47-.93-12.96-1.67-19.47-2.23-2.33-.2-4.66-.36-6.99-.49l-.41-.02h-.11s-.05,0-.05,0t-.51,12.89h0ZM249.52,50.9l-.5-12.89c.33-.02.66-.02,1,0l-.49,12.89ZM249.52,50.9s-40.71,1.66-84.54,16.12c-43.84,14.47-84.54,41.92-84.54,41.92,0,0,5.05,109.43,37.58,167.7,34.52,61.84,131.51,122.55,131.51,122.55,0,0,96.99-60.71,131.51-122.55,32.52-58.27,37.58-167.7,37.58-167.7,0,0-40.71-27.46-84.54-41.92-43.84-14.47-84.54-16.12-84.54-16.12Z"/>
  <path class="cls-14" d="M81.39,98.15l6.86,10.79-12.51.61c-.21-4.56,1.94-8.9,5.65-11.4ZM257.34,50.89l-.5-12.89h-.18l-.41.03-1.5.08c-1.83.11-3.66.25-5.49.41-6.51.56-13.01,1.31-19.48,2.23-16.13,2.29-38.01,6.45-60.82,13.98-22.93,7.57-44.81,18.45-60.82,27.32-6.53,3.62-12.98,7.4-19.33,11.34-2.31,1.44-4.6,2.9-6.88,4.4l-.39.26-.11.08-.04.03,6.86,10.8-12.51.61v.11s.02.26.02.26c.08,1.57.17,3.13.28,4.7.21,3.2.54,7.8,1.04,13.49,1,11.38,2.68,27.18,5.4,44.85,5.37,34.88,15.02,78.81,32.5,110.11,18.54,33.24,53.11,65.16,81.86,88.22,12.29,9.84,24.91,19.23,37.83,28.16,5.22,3.61,10.51,7.13,15.84,10.56l.23.15.09.05s0,0,6.51-11.02l-6.51,11.02c4,2.5,9.02,2.5,13.02,0l-6.51-11.02,6.51,11.03h0s.09-.06.09-.06l.23-.15c1.38-.87,2.76-1.76,4.12-2.66,3.94-2.58,7.85-5.22,11.72-7.9,12.92-8.93,25.54-18.33,37.83-28.17,28.76-23.06,63.31-54.97,81.87-88.21,17.47-31.31,27.13-75.23,32.5-110.11,2.72-17.67,4.4-33.46,5.4-44.85.53-6.06.97-12.12,1.32-18.19v-.26s.01-.1.01-.1l-12.51-.62,12.51.62c.21-4.57-1.94-8.91-5.65-11.42l-6.86,10.8,6.86-10.79h0l-.04-.03-.11-.08-.39-.26c-2.27-1.5-4.57-2.96-6.88-4.4-6.35-3.94-12.8-7.72-19.33-11.34-16.01-8.87-37.89-19.74-60.82-27.32-22.81-7.53-44.69-11.69-60.82-13.98-6.47-.93-12.96-1.67-19.47-2.23-2.33-.2-4.66-.36-6.99-.49l-.41-.02h-.11s-.05,0-.05,0t-.51,12.89h0ZM257.34,50.89l-.5-12.89c.33-.02.66-.02,1,0l-.49,12.89ZM257.34,50.89s-40.71,1.66-84.54,16.12c-43.84,14.47-84.54,41.92-84.54,41.92,0,0,5.05,109.43,37.58,167.7,34.52,61.84,131.51,122.55,131.51,122.55,0,0,96.99-60.71,131.51-122.55,32.52-58.27,37.58-167.7,37.58-167.7,0,0-40.71-27.46-84.54-41.92-43.84-14.47-84.54-16.12-84.54-16.12Z"/>
  <path class="cls-10" d="M19.21,503.83c-3.45,3.45-9.05,3.45-12.5,0-3.45-3.45-3.45-9.05,0-12.5,3.45-3.45,9.05-3.45,12.5,0,3.45,3.45,3.45,9.05,0,12.5h0Z"/>
  <path class="cls-4" d="M87.66,98.15l6.86,10.79-12.51.61c-.21-4.56,1.94-8.9,5.65-11.4ZM263.61,50.89l-.5-12.89h-.18l-.41.03-1.5.08c-1.83.11-3.66.25-5.49.41-6.51.56-13.01,1.31-19.48,2.23-16.13,2.29-38.01,6.45-60.82,13.98-22.93,7.57-44.81,18.45-60.82,27.32-6.53,3.62-12.98,7.4-19.33,11.34-2.31,1.44-4.6,2.9-6.88,4.4l-.39.26-.11.08-.04.03,6.86,10.8-12.51.61v.11s.02.26.02.26c.08,1.57.17,3.13.28,4.7.21,3.2.54,7.8,1.04,13.49,1,11.38,2.68,27.18,5.4,44.85,5.37,34.88,15.02,78.81,32.5,110.11,18.54,33.24,53.11,65.16,81.86,88.22,12.29,9.84,24.91,19.23,37.83,28.16,5.22,3.61,10.51,7.13,15.84,10.56l.23.15.09.05s0,0,6.51-11.02l-6.51,11.02c4,2.5,9.02,2.5,13.02,0l-6.51-11.02,6.51,11.03h0s.09-.06.09-.06l.23-.15c1.38-.87,2.76-1.76,4.12-2.66,3.94-2.58,7.85-5.22,11.72-7.9,12.92-8.93,25.54-18.33,37.83-28.17,28.76-23.06,63.31-54.97,81.87-88.21,17.47-31.31,27.13-75.23,32.5-110.11,2.72-17.67,4.4-33.46,5.4-44.85.53-6.06.97-12.12,1.32-18.19v-.26s.01-.1.01-.1l-12.51-.62,12.51.62c.21-4.57-1.94-8.91-5.65-11.42l-6.86,10.8,6.86-10.79h0l-.04-.03-.11-.08-.39-.26c-2.27-1.5-4.57-2.96-6.88-4.4-6.35-3.94-12.8-7.72-19.33-11.34-16.01-8.87-37.89-19.74-60.82-27.32-22.81-7.53-44.69-11.69-60.82-13.98-6.47-.93-12.96-1.67-19.47-2.23-2.33-.2-4.66-.36-6.99-.49l-.41-.02h-.11s-.05,0-.05,0t-.51,12.89h0ZM263.61,50.89l-.5-12.89c.33-.02.66-.02,1,0l-.49,12.89ZM263.61,50.89s-40.71,1.66-84.54,16.12c-43.84,14.47-84.54,41.92-84.54,41.92,0,0,5.05,109.43,37.58,167.7,34.52,61.84,131.51,122.55,131.51,122.55,0,0,96.99-60.71,131.51-122.55,32.52-58.27,37.58-167.7,37.58-167.7,0,0-40.71-27.46-84.54-41.92-43.84-14.47-84.54-16.12-84.54-16.12Z"/>
  <path class="cls-9" d="M269.87,63.53c.14,3.56-2.55,6.56-6,6.71,0,0,0,0,0,0h-.38c-1.96.12-3.93.26-5.89.43-5.7.49-11.39,1.14-17.05,1.95-14.26,2.03-33.45,5.7-53.31,12.24-19.79,6.53-38.98,16.04-53.31,23.97-6.92,3.83-13.73,7.88-20.42,12.13l.04.61c1.2,17.53,3.13,35.01,5.78,52.37,4.92,31.95,13.48,69.77,27.93,95.66,1.8,3.04.87,7.01-2.08,8.87-2.95,1.86-6.81.9-8.61-2.14-.06-.1-.11-.19-.16-.29-15.67-28.06-24.5-67.89-29.45-100.08-2.71-17.75-4.68-35.61-5.91-53.53-.09-1.42-.18-2.84-.25-4.26v-.24s-.01-.08-.01-.08l6.25-.32-3.43-5.39.04-.03.09-.06.34-.23,1.32-.86c1.14-.74,2.81-1.81,4.93-3.13,4.24-2.64,10.31-6.29,17.66-10.37,14.68-8.13,34.63-18.03,55.42-24.9,20.74-6.84,40.68-10.64,55.42-12.73,5.89-.84,11.81-1.52,17.74-2.03,2.1-.18,4.2-.33,6.3-.45h.35s.1-.02.1-.02h.04l.25,6.44-.25-6.45c3.46-.15,6.37,2.62,6.51,6.18,0,0,0,0,0,.01ZM107.05,117.54l-3.43-5.39c-1.85,1.25-2.92,3.42-2.82,5.7l6.25-.31Z"/>
  <path class="cls-16" d="M420.47,111.1c3.45.17,6.12,3.19,5.96,6.75,0,0,0,0,0,0l-6.26-.31,6.26.3v.32s-.06.89-.06.89c-.04.77-.11,1.92-.21,3.37-1.23,17.92-3.2,35.78-5.91,53.53-4.95,32.19-13.78,72.01-29.45,100.07-16.62,29.79-47.91,58.8-74.45,80.09-11.28,9.03-22.86,17.65-34.73,25.85-4.52,3.13-9.09,6.18-13.7,9.16l-.78.49-.21.13-.06.04h-.01s-.01.01-3.26-5.5l3.25,5.51c-2.96,1.85-6.81.89-8.61-2.16s-.86-7.01,2.09-8.87h0l.06-.03.18-.12c1.2-.76,2.4-1.52,3.58-2.31,15.3-10.1,30.14-20.9,44.49-32.38,26.35-21.14,55.96-48.87,71.29-76.34,14.45-25.89,23.01-63.71,27.93-95.67,2.65-17.37,4.58-34.84,5.78-52.37.09-1.35.17-2.71.24-4.06v-.21s.01-.06.01-.06c.16-3.56,3.09-6.31,6.55-6.14,0,0,0,0,0,0h0Z"/>
  <path class="cls-4" d="M140.82,121.8l6.86,10.8-12.51.61c-.21-4.57,1.94-8.91,5.65-11.41ZM272.93,89.59l-.5-12.89h-.14l-.31.02-1.15.06c-.98.06-2.38.15-4.14.3-3.53.3-8.55.81-14.6,1.68-12.07,1.71-28.48,4.83-45.6,10.48-17.25,5.7-33.65,13.85-45.6,20.47-6.29,3.48-12.46,7.17-18.52,11.06l-1.11.73-.3.2-.09.06-.04.02,6.86,10.8-12.51.61v.08l.02.21c0,.17.02.43.04.75.04.64.09,1.58.17,2.77,1,14.57,2.6,29.09,4.8,43.51,3.98,25.9,11.2,58.95,24.46,82.71,14.08,25.22,40.12,49.19,61.47,66.31,11.92,9.54,24.25,18.51,36.96,26.9,1.03.67,2.06,1.34,3.09,2l.19.12.04.03h.03s6.51-11.01,6.51-11.01l-6.51,11.02c4,2.5,9.02,2.5,13.02,0l-6.51-11.02,6.51,11.03.03-.02.05-.03.18-.12c1.04-.65,2.07-1.32,3.09-2,12.71-8.39,25.04-17.36,36.96-26.9,21.36-17.12,47.39-41.09,61.47-66.31,13.26-23.76,20.48-56.81,24.46-82.71,2.2-14.43,3.8-28.95,4.8-43.52.08-1.17.15-2.35.21-3.52v-.21s0-.08,0-.08l-12.51-.62,12.51.61c.21-4.57-1.94-8.91-5.65-11.41l-6.86,10.8,6.86-10.8h-.02s-.03-.03-.03-.03l-.09-.06-.3-.2c-1.71-1.13-3.43-2.24-5.17-3.31-4.75-2.95-9.58-5.78-14.47-8.48-11.94-6.62-28.35-14.78-45.59-20.47-17.13-5.65-33.54-8.77-45.6-10.48-4.85-.7-9.72-1.25-14.6-1.68-1.76-.15-3.52-.27-5.28-.37l-.32-.02h-.14l-.5,12.89ZM272.93,89.59l-.5-12.89c.33-.02.66-.02,1,0l-.49,12.89ZM272.93,89.59s-30.15,1.23-62.63,11.95c-32.47,10.71-62.63,31.06-62.63,31.06,0,0,3.74,81.06,27.83,124.22,25.57,45.81,97.42,90.78,97.42,90.78,0,0,71.85-44.97,97.42-90.78,24.09-43.16,27.83-124.23,27.83-124.23,0,0-30.15-20.34-62.63-31.05-32.47-10.72-62.63-11.95-62.63-11.95Z"/>
  <path class="cls-2" d="M376.64,134.75c3.45.17,6.12,3.19,5.96,6.75,0,0,0,0,0,0l-6.26-.31,6.26.3v.25s-.04.64-.04.64l-.15,2.45c-.89,12.96-2.31,25.87-4.27,38.7-3.57,23.21-9.96,52.16-21.41,72.67-12.15,21.77-34.91,42.83-54.05,58.18-10.6,8.48-21.57,16.47-32.88,23.93-.92.61-1.65,1.07-2.15,1.39l-.56.36-.16.1-.04.03h-.01s-3.26-5.5-3.26-5.5l3.26,5.51c-2.96,1.85-6.81.88-8.61-2.16-1.8-3.05-.86-7.02,2.1-8.87l.04-.02.13-.08.53-.33,2.03-1.32c10.97-7.24,21.61-14.99,31.9-23.22,18.95-15.19,40.03-34.97,50.89-54.43,10.23-18.34,16.36-45.29,19.9-68.26,1.9-12.45,3.28-24.97,4.14-37.54l.14-2.32.03-.59v-.15s0-.03,0-.03M376.64,134.74c-3.45-.17-6.39,2.57-6.56,6.13,0,0,0,0,0,0l6.56-6.13h0Z"/>
</svg>