<?xml version="1.0" encoding="UTF-8"?>
<svg id="_图层_2" data-name="图层 2" xmlns="http://www.w3.org/2000/svg" viewBox="0 0 289.79 163.96">
  <defs>
    <style>
      .cls-1 {
        fill: #c7b299;
      }

      .cls-1, .cls-2, .cls-3, .cls-4, .cls-5, .cls-6, .cls-7, .cls-8, .cls-9, .cls-10, .cls-11, .cls-12, .cls-13, .cls-14 {
        stroke-width: 0px;
      }

      .cls-15, .cls-5 {
        fill: #754c24;
      }

      .cls-15, .cls-16 {
        font-family: Impact, Impact;
        font-size: 53.03px;
      }

      .cls-2 {
        fill: #1a1a1a;
        opacity: .5;
      }

      .cls-4, .cls-16 {
        fill: #115a34;
      }

      .cls-6 {
        fill: #009245;
      }

      .cls-7 {
        fill: #806643;
      }

      .cls-8 {
        fill: #333;
      }

      .cls-9 {
        fill: #483927;
      }

      .cls-10 {
        fill: #f2f2d7;
      }

      .cls-11 {
        fill: #ffeed1;
      }

      .cls-12 {
        fill: #43aa00;
      }

      .cls-13 {
        fill: #8c6239;
      }

      .cls-14 {
        fill: #c69c6d;
      }
    </style>
  </defs>
  <g id="_图层_1-2" data-name="图层 1">
    <text class="cls-16" transform="translate(29.62 98.6)"><tspan x="0" y="0">iGEM</tspan></text>
    <path class="cls-4" d="M181.69,148.13c-1.1,3.69-7.59,5.51-13.99,6.02-6.4.51-12.73-.27-15-.98-4.97-1.53-10.11-5.27-14.94-9.62-1.49-1.34-2.94-2.74-4.35-4.15,3.88.74,7.75,1.1,11.59.96.02-2.27.83-4.35,2.17-5.98-4.65-2.67-7.54-6.46-7.23-9.49-.05-.81.03-1.64.25-2.49.98-3.74,4.37-6.09,7.58-5.25,1.96.51,3.39,2.1,3.98,4.1,1.15.31,2.33.71,3.51,1.23,3.02,1.33,5.52,3.15,7.21,5.07.38-1.5.88-3.02,1.53-4.53,1.63-3.82,3.87-7.06,6.38-9.47-2.23-.51-4.66-1.41-7.09-2.69-7.26-3.82-11.75-9.57-10.03-12.84,1.72-3.26,9-2.81,16.26,1.01,1.31.69,2.53,1.45,3.65,2.24-.11-.76-.17-1.55-.17-2.36,0-3.78,1.24-7.15,3.18-9.35-.75-1.68-1.18-3.61-1.18-5.65,0,0,0,0,0-.01-.17,0-.33.01-.5.01-10.22,0-18.5-3.81-18.5-8.5,0-3.89,5.68-7.16,13.43-8.17-1.51-1.42-2.43-3.28-2.43-5.33,0-1.79.71-3.44,1.89-4.77-2.71-1.33-5.13-4.66-6.32-8.95-.75.45-1.62.72-2.56.72-1.2,0-2.28-.44-3.14-1.14-3.96,5.66-8.14,9.07-10.11,7.93-1-.58-1.27-2.25-.91-4.57-1.03.51-1.92.62-2.57.25-2.36-1.36-.8-8.47,3.48-15.88.17-.3.35-.59.53-.89-5.09-3.71-10.37-7.04-15.85-10-.17,1.03-.38,2.08-.64,3.15-2.11,8.62-6.57,14.94-9.96,14.11-3.4-.83-4.44-8.49-2.34-17.11.1-.43.22-.85.34-1.27-1.59-.62-2.86-1.89-3.45-3.5-.04.07-.08.14-.13.21-2.01,2.78-6.47,2.99-9.96.47-2.98-2.15-4.28-5.6-3.35-8.29C72.5,3.43,40.41,1.95,10.16,4.28c-2.7.21-5.6.26-8.31.71-.46-.04-.92-.07-1.39-.12.01,0,.02,0,.03,0,.39.04.77.1,1.16.14-.56.1-1.12.2-1.66.34,4.45,2.21,7.8,5.6,11.52,8.85,10.53,9.22,19.5,20.14,25.25,32.97,6.71,14.98,10.86,30.96,14.17,46.99,3.36,16.29,4.83,34.91,16.71,47.66,1.45-1.16,3.17-1.88,4.85-1.88,2.71,0,5.08,1.64,6.4,4.08.97-1.29,2.22-2.08,3.6-2.08,1,0,1.94.42,2.74,1.14,1.06-2.54,2.47-5.15,3.64-7.18.71-1.23,1.6-2.35,2.58-3.32.08-.11.15-.21.23-.32,1.21-1.49,2.82-2.42,4.43-2.72,1.8-.6,3.5-.45,4.63.81l-.04.43c2.02,1.89,2.15,5.27.36,8,2.02,2.03,1.84,5.59-.84,10.23-.01.02-.03.04-.04.07.43-.09.86-.14,1.31-.14,2.82,0,5.28,1.77,6.56,4.38.31-.12.62-.24.94-.38,3.41-1.49,6.2-3.83,8.45-6.3-1.67-2.21-2.22-4.64-1.17-6.45.82-1.42,2.48-2.17,4.49-2.26,4.97,6.19,10.72,11.59,16.94,16.28,6.56,4.94,11.88,7.75,17.01,8.97,5.13,1.22,10.08.86,15-.02,1.45-.26,12-1.98,12-1.98,0,0-1.49-8.11-.02-13.04Z"/>
    <path class="cls-6" d="M168.64,119.74c1.63-3.82,3.87-7.06,6.38-9.47-2.23-.51-4.66-1.41-7.09-2.69-7.26-3.82-11.75-9.57-10.03-12.84,1.72-3.26,9-2.81,16.26,1.01,1.31.69,2.53,1.45,3.65,2.24-.11-.76-.17-1.55-.17-2.36,0-3.78,1.24-7.15,3.18-9.35-.75-1.68-1.18-3.61-1.18-5.65,0,0,0,0,0-.01-.17,0-.33.01-.5.01-10.22,0-18.5-3.81-18.5-8.5,0-3.89,5.68-7.16,13.43-8.17-1.51-1.42-2.43-3.28-2.43-5.33,0-1.79.71-3.44,1.89-4.77-2.71-1.33-5.13-4.66-6.32-8.95-.75.45-1.62.72-2.56.72-1.2,0-2.28-.44-3.14-1.14-3.96,5.66-8.14,9.07-10.11,7.93-1-.58-1.27-2.25-.91-4.57-1.03.51-1.92.62-2.57.25-2.36-1.36-.8-8.47,3.48-15.88.17-.3.35-.59.53-.89-5.09-3.71-10.37-7.04-15.85-10-.17,1.03-.38,2.08-.64,3.15-2.11,8.62-6.57,14.94-9.96,14.11-3.4-.83-4.44-8.49-2.34-17.11.1-.43.22-.85.34-1.27-1.59-.62-2.86-1.89-3.45-3.5-.05.07-.08.14-.13.21-2.01,2.78-6.47,2.99-9.96.47-2.98-2.15-4.28-5.6-3.35-8.29C77.14.13,45.04-1.35,14.8.98c-3.33.26-6.96.27-10.16,1.08,4.45,2.21,7.8,5.6,11.52,8.85,10.53,9.22,19.5,20.14,25.25,32.97,6.71,14.98,10.86,30.96,14.17,46.99,3.36,16.29,4.83,34.91,16.71,47.66,1.45-1.16,3.17-1.88,4.85-1.88,2.71,0,5.08,1.64,6.4,4.08.97-1.29,2.22-2.08,3.6-2.08,1,0,1.94.42,2.74,1.14,1.06-2.54,2.47-5.15,3.64-7.18.71-1.23,1.6-2.35,2.58-3.32.08-.11.15-.21.23-.32,1.21-1.49,2.82-2.42,4.43-2.72,1.8-.6,3.5-.45,4.63.81l-.04.43c2.02,1.89,2.15,5.27.36,8,2.02,2.03,1.84,5.59-.84,10.23-.01.02-.03.04-.04.07.43-.09.86-.14,1.31-.14,2.82,0,5.28,1.77,6.56,4.38.31-.12.62-.24.94-.38,3.41-1.49,6.2-3.83,8.45-6.3-1.67-2.21-2.22-4.64-1.17-6.45,1.16-2,3.95-2.7,7.08-2.05.24-.44.46-.85.65-1.2,0,0,0,0,0,0,7.08,2.35,14.07,3.68,21,3.43.02-2.27.83-4.35,2.17-5.98-4.65-2.67-7.54-6.46-7.23-9.49-.05-.81.03-1.64.25-2.49.98-3.74,4.37-6.09,7.58-5.25,1.96.51,3.39,2.1,3.98,4.1,1.15.31,2.33.71,3.51,1.23,3.02,1.33,5.52,3.15,7.21,5.07.38-1.5.88-3.02,1.53-4.53Z"/>
    <path class="cls-12" d="M4.42,2.64c33.46,3.62,65.04,25.14,83.46,56.89,11.19,19.28,17.53,41.61,27.52,61.71,6.27,12.61,15.57,22.71,26.23,30.74,6.56,4.94,11.88,7.75,17.01,8.97,5.13,1.22,10.08.86,15-.02,1.45-.26,12-1.98,12-1.98,0,0-1.49-8.11-.02-13.04-1.1,3.69-7.59,5.51-13.99,6.02-6.4.51-12.73-.27-15-.98-4.97-1.53-10.11-5.27-14.94-9.62s-9.36-9.33-13.1-13.33c-12.61-13.51-19.53-33.87-28.08-50.96-10.24-20.46-19.73-39.4-36.5-53.32-8.69-7.21-18.31-12.89-28.6-16.58C24.95,3.4,15.09,3.59,4.38,2.64c.01,0,.02,0,.03,0Z"/>
    <path class="cls-1" d="M136.31,88.15c-1.05-.3-3.22-.91-5.86-.35-.02,0-.04,0-.05.01-2.02.44-1.53,2.32.29,3.13,1.66.75,2.99,1.67,5.36,1.63,1.76-.03,4.77-.43,5.02-1.43.27-1.1-2.9-2.46-4.76-2.99Z"/>
    <path class="cls-1" d="M139.12,69.58c-.38-.64-2.81-.09-4.73.89-.92.47-1.24,1.26-1.34,1.92-.1.71.33,1.39,1,1.64.69.26,1.69.53,2.83.48.3-.01,1.43-.38,1.47-.9.01-.14-.06-.24-.08-.28-.52-.89,1.26-3.07.85-3.75Z"/>
    <path class="cls-1" d="M141.36,55.49c-1.47-1.32-3.91-.36-5.9.42-1.23.48-1.61.92-1.8,1.38-.34.81.07,1.78.73,2.37.61.53,1.1.72,2.37,1.13,3.19,1.04,3.33,1.46,3.91,1.24,1.63-.63,2.57-4.87.7-6.55Z"/>
    <text class="cls-15" transform="translate(34.34 97.87)"><tspan x="0" y="0">iGEM</tspan></text>
    <path class="cls-2" d="M228.61,113.68c-2.09-.3-5.15-.47-8.72.29-2.72.58-5.42,1.63-7.43,2.83-2.04-1.01-5.05-2.22-8.86-2.82-3.06-.48-6.56-1.01-9.25-.08-.06-.27-.15-.52-.31-.75-.47-.69-1.21-.96-1.59-1.08-2.26-.75-6.47-2.14-9.31-2.02-.9-1.91-2.21-3.24-2.21-3.24-.48-.48-.89-.8-1.08-.94-4.29-3.29-7.37-5.66-9.62-7.21.32-3.27-.22-6.46-1.51-8.89.87-2.43,1.41-5,1.74-7.56.45-3.58.3-5.09-.3-6.38-.73-1.55-1.92-2.58-2.93-3.26,0,0,0,0,0-.02,1.62-3.11.6-7.36-2.74-9.24-1.16-.65-2.43-.92-3.68-.87.27-.34.43-.68.52-.99,1.65-5.48-13.21-17.93-19.45-14.51-3.31,1.81-5.28,8.69-2.99,12.8.15.26.33.57.42.72-3.12,2.8-4.58,8.3-2.71,11.86.3.57.68,1.08,1.1,1.54-3.55,2.03-4.37,8.6-3.8,8.96.22.14.06.87.32,1.22-.48,1.09,2.21,5.23,2.11,6.42-.31,3.62.34,5.16,2.33,7.3.28.56.7,1.47,1.12,2.64,1.71,4.7,1.01,6.93,2.55,9.07.3.41.63.75,1,1.05-.53,1.32-.78,2.59-.67,3.73.39,4.02,2.67,6.22,2.67,6.22.94.91,1.21.69,3,2,2.54,1.87,4.12,3.86,5,5,2,2.57,1.33,2.62,2.81,4.16.48.5,1.06,1.02,5.19,3.84,1.9,1.3,2.85,1.94,3,2,.03,0,.05.01.08.02.07.15.14.31.22.46,1.11,1.97,1.92.95,6.71,5.49,0,0,10.49,4.54,10.49,4.54,0,0,1.9-.63,4-1,1.39-.24,1.72-.17,2,0,.76.46.89,1.52.92,1.89.56-.36,1.25-.7,2.08-.89,3.5-.82,6.49,1.58,7,2,.05.09.16.24.31.42,2.28,2.57,9.19,1.98,11.69-1.42,1.17-1.6,1.57-4.09,2-4,.11.02.17.21.2.35,1.35,3.81,3,4.5,3.8,4.65.86.17,1.78-.08,6-3,4.36-3.02,5.39-4.16,6.79-4.03v-29.23Z"/>
    <g>
      <path class="cls-3" d="M155.46,51.48c3.27,1.41,5.6,4.66,5.81,8.23.03.48.78.48.75,0-.22-3.81-2.66-7.36-6.18-8.88-.44-.19-.82.46-.38.65h0Z"/>
      <path class="cls-3" d="M160.79,56.7c3.38.36,6.2,3.52,6.12,6.93s-3.11,6.4-6.49,6.58c-.48.03-.48.78,0,.75,3.79-.21,7.14-3.49,7.24-7.33s-3.1-7.27-6.87-7.68c-.48-.05-.48.7,0,.75h0Z"/>
      <path class="cls-3" d="M161.14,57.67c2.09,1.23,2.93,3.88,2.49,6.19-.49,2.59-2.3,4.68-4.29,6.3-.37.31.16.83.53.53,2.19-1.79,4.18-4.19,4.55-7.09.33-2.52-.65-5.25-2.9-6.58-.42-.25-.79.4-.38.65h0Z"/>
      <path class="cls-3" d="M167.81,64.51v-.37c0-.05,0-.1-.03-.14-.02-.05-.04-.09-.08-.12-.03-.04-.07-.06-.12-.08-.04-.02-.09-.03-.14-.03h-.1c-.06.03-.12.06-.17.11-.07.07-.11.16-.11.27v.37c0,.05,0,.1.03.14.02.05.04.09.08.12.03.04.07.06.12.08.04.02.09.03.14.03h.1c.06-.03.12-.06.17-.11.07-.07.11-.16.11-.27h0Z"/>
      <path class="cls-3" d="M167.39,64.57c1.45,1.6,1.78,4.09.79,6.01-.22.43.43.81.65.38,1.15-2.24.78-5.06-.91-6.92-.32-.36-.85.17-.53.53h0Z"/>
      <path class="cls-10" d="M286.93,108.52c-1.55-1.98-3.51-3.63-5.74-4.8-.66-.34-2.19-.98-5.36-2.1-4.17-1.47-6.3-2.21-9.06-2.3-.06,0-.12,0-.18,0-.87-1.54-2.42-3.29-4.57-4.95-.64-.31-1.44.15-1.75.79-.36.75-.31,1.54-.2,2.1.25,1.41.26,2.43.2,3.22.1.86.21,1.73.31,2.59l-4.5,1.5c-1.14.54-1.91,1.7-2,3-.73.21-1.78.53-3,1-1.41.53-2.46,1.03-2.65,1.12-.31.15-.61.37-.9.65.09-.31.17-.61.27-.91-2.47.17-6.05.45-10.4.92-5.06.54-5.45.71-5.83,1-.19.15-.4.34-.61.55-2.08-.35-5.39-.63-9.31.2-2.72.58-5.42,1.63-7.43,2.83-2.04-1.01-5.05-2.22-8.86-2.82-3.06-.48-6.56-1.01-9.25-.08-.06-.27-.15-.52-.31-.75-.47-.69-1.21-.96-1.59-1.08-2.26-.75-6.47-2.14-9.31-2.02-.9-1.91-2.21-3.24-2.21-3.24-.48-.48-.89-.8-1.08-.94-4.29-3.29-7.37-5.66-9.62-7.21.32-3.27-.22-6.46-1.51-8.89.87-2.43,1.41-5,1.74-7.56.45-3.58.3-5.09-.3-6.38-.73-1.55-1.92-2.58-2.93-3.26,0,0,0,0,0-.02,1.62-3.11.6-7.36-2.74-9.24-1.16-.65-2.43-.92-3.68-.87.27-.34.43-.68.52-.99,1.65-5.48-13.21-17.93-19.45-14.51-3.31,1.81-5.28,8.69-2.99,12.8.15.26.33.57.42.72-3.12,2.8-4.58,8.3-2.71,11.86.3.57.68,1.08,1.1,1.54-3.55,2.03-4.37,8.6-3.8,8.96.22.14.06.87.32,1.22-.48,1.09,2.21,5.23,2.11,6.42-.31,3.62.34,5.16,2.33,7.3.28.56.7,1.47,1.12,2.64,1.71,4.7,1.01,6.93,2.55,9.07.3.41.63.75,1,1.05-.53,1.32-.78,2.59-.67,3.73.39,4.02,2.67,6.22,2.67,6.22.94.91,1.21.69,3,2,2.54,1.87,4.12,3.86,5,5,2,2.57,1.33,2.62,2.81,4.16.48.5,1.06,1.02,5.19,3.84,1.9,1.3,2.85,1.94,3,2,.03,0,.05.01.08.02.07.15.14.31.22.46,1.11,1.97,1.92.95,6.71,5.49,0,0,0,0,0,0,0,0,10.49,4.54,10.49,4.54,0,0,1.9-.63,4-1,1.39-.24,1.72-.17,2,0,.76.46.89,1.52.92,1.89.56-.36,1.25-.7,2.08-.89,3.5-.82,6.49,1.58,7,2,.05.09.16.24.31.42,2.28,2.57,9.19,1.98,11.69-1.42,1.17-1.6,1.57-4.09,2-4,.11.02.17.21.2.35,1.35,3.81,3,4.5,3.8,4.65.86.17,1.78-.08,6-3,4.57-3.17,5.48-4.27,7-4,1.84.33,1.71,2.14,4,3,1.42.54,3.3.03,7-1,3.91-1.09,5.89-1.66,7-3,1.52-1.83.68-2.99,2-4,2.31-1.77,5.13,1.56,9,0,1.85-.75,2.02-1.84,5-3,1.58-.62,1.99-.48,3-1,1.27-.65,2.83-1.98,4-5,.08.15,1.92,3.4,5.5,3.5,2.82.08,5.55-1.85,6-4,.39-1.87-1.43-2.6-2-6-.12-.69-.81-4.83,1-6,2.11-1.36,5.35-.22,7.66-.27.51,0-2.55-5.46-2.8-5.79Z"/>
      <path class="cls-1" d="M220.66,146.13c-.25,2.14,1.28,3.97,2.51,5.44.73.87,3.15,3.78,6.91,4,.96.06,2.76.16,4-1,1.5-1.4,1.24-3.75,1-6-.38-3.49-.71-6.63-3-8-3.75-2.26-10.92,1.35-11.42,5.56Z"/>
      <path class="cls-1" d="M243.07,139.63c-.25,2.14,1.28,3.97,2.51,5.44.73.87,3.15,3.78,6.91,4,.96.06,2.76.16,4-1,1.5-1.4,1.24-3.75,1-6-.38-3.49-.71-6.63-3-8-3.75-2.26-10.92,1.35-11.42,5.56Z"/>
      <path class="cls-10" d="M164.08,64.57c-.33.67-.67,1.33-1,2"/>
      <g>
        <path class="cls-7" d="M161.08,56.57c-.39.51,1.51,1.83,2.1,4.83.08.41.38,1.71.05,2.94-.93,3.46-5.39,5.01-6.08,5.24.95.79,1.85,1.08,2.57,1.17,3.36.41,7.04-2.84,7.8-6.13.79-3.38-1.77-5.96-1.91-6.11-1.65-1.72-4.13-2.44-4.53-1.93Z"/>
        <path class="cls-1" d="M165.32,64.47c-.81,1.07-2.42,2.05-3.04,1.87-.57-.17-.19-1.31,0-1.87.57-1.72,2.14-3.85,3.04-3.73.82.11,1.2,2.14,0,3.73Z"/>
        <path class="cls-8" d="M159.02,68.17c1.28.23,2.85.09,3.97-.35.84-.33,1.16-.73,1.27-.89,0-.14-.05-.4-.42-.64-.54-.35-1.42-.42-1.7-.44-.26.32-.66.72-1.25,1.17-.63.48-1.31.87-1.87,1.16Z"/>
        <path class="cls-8" d="M162.03,58.38c1.26.16,2.61.83,3.39,1.68.59.65.68,1.2.7,1.41-.07.16-.24.44-.7.59-.67.22-1.49.02-1.75-.06-.08-.45-.23-1.03-.54-1.72-.33-.75-.74-1.4-1.1-1.91Z"/>
      </g>
      <g>
        <path class="cls-9" d="M155.64,62.19c-.5.47-.39,2.9.61,3.32.68.29,1.59-.44,1.67-1.21.13-1.19-1.72-2.64-2.28-2.11Z"/>
        <path class="cls-9" d="M160.37,99.04c-.5.47-.39,2.9.61,3.32.68.29,1.59-.44,1.67-1.21.13-1.19-1.72-2.64-2.28-2.11Z"/>
        <path class="cls-9" d="M170.37,119.04c-.5.47-.39,2.9.61,3.32.68.29,1.59-.44,1.67-1.21.13-1.19-1.72-2.64-2.28-2.11Z"/>
        <path class="cls-9" d="M196.37,136.67c-.5.4-.39,2.49.61,2.85.68.25,1.59-.38,1.67-1.04.13-1.02-1.72-2.26-2.28-1.81Z"/>
        <path class="cls-9" d="M181.37,131.04c-.5.47-.39,2.9.61,3.32.68.29,1.59-.44,1.67-1.21.13-1.19-1.72-2.64-2.28-2.11Z"/>
        <path class="cls-9" d="M214.36,135.25c-.5.4-.39,2.49.61,2.85.68.25,1.59-.38,1.67-1.04.13-1.02-1.72-2.26-2.28-1.81Z"/>
        <path class="cls-9" d="M234.3,132.26c-.29.45-.23,2.79.36,3.2.4.27.94-.43.99-1.16.08-1.15-1.02-2.54-1.35-2.03Z"/>
        <path class="cls-9" d="M249.36,124.25c-.5.4-.39,2.49.61,2.85.68.25,1.59-.38,1.67-1.04.13-1.02-1.72-2.26-2.28-1.81Z"/>
        <path class="cls-9" d="M257.78,116.1c-.29.48-.23,2.98.36,3.41.4.29.94-.45.99-1.24.08-1.23-1.02-2.71-1.35-2.17Z"/>
      </g>
      <path class="cls-1" d="M198.42,146.57c-.86,2.08,2.05,4.99,2.51,5.44,2.74,2.74,7.85,4.71,10.15,2.56,1.29-1.21,1.42-3.44,1-5-.53-1.97-1.98-3.04-2.58-3.47-3.69-2.64-10.04-2.06-11.09.47Z"/>
      <path class="cls-1" d="M188.14,140.22c.03.51-.67.63-1.18,1.31-1.1,1.46-.25,3.54.76,7.58.41,1.66.85,3.75-.5,4.79-.7.54-1.68.57-2.55.41-2.32-.44-4.28-2.08-5.61-4.03-1.77-2.58-3.3-4.25-2.93-6.43.61-3.62,5.55-5.8,8.95-5.27,1.19.18,3.02.83,3.06,1.65Z"/>
      <path class="cls-1" d="M151.02,92.71c-4.03-2.68-10.1,2.4-11.2,3.32-.97.81-1.58,1.54-1.46,2.25.2,1.15,2.2,1.67,2.92,1.86,4.65,1.21,11.42-.58,11.89-3.71.22-1.52-1.09-3.02-2.15-3.72Z"/>
      <path class="cls-1" d="M149.9,71.75c-2.04-.66-4.04,4.02-8.49,7.37-.3.22-1.15.98-1.6,2.16-.32.85-.24,1.91.43,2.52.51.47,1.16.61,1.75.63,2.34.1,6.51.28,8.77-3.01,2.46-3.58,1.11-9.04-.87-9.67Z"/>
      <path class="cls-1" d="M146.38,61.23c-3.27-1.93-7.08,1.61-7.7,2.35-.15.18-.54.64-.4.98.12.3.6.38.81.41,5.98.87,8.97,1.3,9.53.05.5-1.12-.85-2.97-2.24-3.79Z"/>
      <g>
        <path class="cls-13" d="M153.61,44.9c1.43,2.64,2,6.1.79,8.15-1.06,1.8-3.3,2.73-5.37,2.48s-3.94-1.54-5.15-3.24c-1.88-2.62-3.29-7.66.15-9.76,1.93-1.18,4.23-2,6.42-1,1.22.56,2.34,1.82,3.17,3.36Z"/>
        <path class="cls-5" d="M152.08,53.48c-5.02,0-9.17-2.93-9.88-6.74,0,2,.9,4.16,1.94,5.6,1.22,1.67,3.08,2.95,5.15,3.19,2.01.24,4.18-.63,5.27-2.31-.8.16-1.63.26-2.48.26Z"/>
        <path class="cls-14" d="M146.13,42.32c.74-1.43,4.07-1.07,5.95,1.16.43.51,1.02,1.24.93,2.22-.1,1.1-1.04,2.08-1.8,2.02-.55-.05-.44.12-1.04-.79-.62-.94.03-1.95-.38-2.18-.53-.3-1.88.06-2.73-.21-.33-.1-.84-.26-1.04-.79-.17-.45-.08-1.06.11-1.43Z"/>
        <ellipse class="cls-11" cx="147.58" cy="42.57" rx="1.5" ry="1"/>
      </g>
    </g>
  </g>
</svg>