<?xml version="1.0" encoding="UTF-8"?>
<svg id="_图层_1" data-name="图层 1" xmlns="http://www.w3.org/2000/svg" viewBox="0 0 446.64 462.34">
  <defs>
    <style>
      .cls-1 {
        fill: #548d63;
      }

      .cls-1, .cls-2, .cls-3 {
        stroke-width: 0px;
      }

      .cls-2 {
        fill: #91c197;
      }

      .cls-3 {
        fill: #659c6f;
      }
    </style>
  </defs>
  <path class="cls-3" d="M73.98,72.57s28.09,13.09,18.67,32.28c-9.6,19.19,40.31-27.74,40.31-27.74,0,0-18.15,1.57-24.08-30.19l-34.9,25.65Z"/>
  <path class="cls-3" d="M146.05,33.66s26.52,28.62,6.28,42.92c-20.24,14.31,59.85-6.46,59.85-6.46,0,0-21.81-8.2-13.61-43.97l-52.52,7.5Z"/>
  <path class="cls-3" d="M239.05,13.59s12.21,23.56-4.19,31.58c-16.58,8.03,41.88,2.27,41.88,2.27,0,0-13.09-8.55-.52-33.15l-37.17-.7Z"/>
  <path class="cls-3" d="M288.6,26.33s4.71,28.79-14.66,30.71c-19.54,1.92,41.88,18.32,41.88,18.32,0,0-10.64-13.61,10.29-34.2l-37.52-14.83Z"/>
  <path class="cls-3" d="M425.06,147.77s-21.11,26.17-34.55,10.64c-13.61-15.53,10.47,50.43,10.47,50.43,0,0,4.89-19.54,34.72-17.1l-10.64-43.97Z"/>
  <path class="cls-3" d="M426.8,235.72s-31.23,22.16-40.66,1.05c-9.42-21.11-5.58,58.45-5.58,58.45,0,0,11.69-20.07,42.92-8.03l3.32-51.47Z"/>
  <path class="cls-3" d="M338.68,412.3s-28.27-23.21-11.17-36.99c17.1-13.78-55.14,9.25-55.14,9.25,0,0,21.29,5.76,18.15,37.34l48.16-9.6Z"/>
  <path class="cls-3" d="M282.67,450.34s-24.08-27.39-5.06-38.21-55.84.35-55.84.35c0,0,20.07,9.25,12.04,39.78l48.86-1.92Z"/>
  <path class="cls-3" d="M135.93,445.98s2.79-33.15,26.7-31.76c23.91,1.4-44.84-28.09-44.84-28.09,0,0,8.55,17.27-22.51,36.29l40.66,23.56Z"/>
  <path class="cls-3" d="M85.85,398.86s15.18-29.49,36.82-19.02c21.46,10.47-30.71-43.1-30.71-43.1,0,0,1.4,19.19-34.55,24.95l28.44,37.17Z"/>
  <path class="cls-3" d="M31.76,348.96s34.72-23.9,43.27-13.09c8.38,10.82-4.89-32.63-4.89-32.63,0,0-23.73,21.11-43.62,17.1l5.23,28.62Z"/>
  <path class="cls-3" d="M11.52,294.17s55.84-17.45,64.04.35c8.2,17.8,3.49-45.54,3.49-45.54,0,0-39.61,18.32-65.96,4.89l-1.57,40.31Z"/>
  <path class="cls-3" d="M15.18,221.06s65.78-3.66,70.49,18.32c4.71,21.99,15.01-49.03,15.01-49.03,0,0-47.98,9.07-73.63-13.09l-11.87,43.8Z"/>
  <path class="cls-3" d="M28.62,158.59s65.43,8.03,66.13,30.54c.7,22.51,23.56-45.72,23.56-45.72,0,0-48.86.35-70.32-25.82l-19.37,41Z"/>
  <path class="cls-1" d="M412.32,237.11c0,103.4-83.82,187.23-187.23,187.23S37.86,340.52,37.86,237.11,121.69,49.89,225.09,49.89s187.23,83.82,187.23,187.23Z"/>
  <path class="cls-2" d="M190.37,212.16c0,18.79-12.18,34.03-27.22,34.03s-27.22-15.23-27.22-34.03,12.18-34.03,27.22-34.03,27.22,15.23,27.22,34.03Z"/>
  <path class="cls-2" d="M306.58,203.96c0,14.17-13.52,25.65-30.19,25.65s-30.19-11.48-30.19-25.65,13.52-25.65,30.19-25.65,30.19,11.48,30.19,25.65Z"/>
  <path class="cls-2" d="M332.23,270.27c0,13.3-12.81,24.08-28.62,24.08s-28.62-10.78-28.62-24.08,12.81-24.08,28.62-24.08,28.62,10.78,28.62,24.08Z"/>
  <path class="cls-2" d="M214.45,357.16c0,15.42-13.21,27.92-29.49,27.92s-29.49-12.49-29.49-27.92,13.21-27.92,29.49-27.92,29.49,12.49,29.49,27.92Z"/>
  <path class="cls-2" d="M111.27,310.03l.65,5.25-.03,4.89-.68,4.59-1.34,4.45-1.83,3.8-2.32,3.26-2.86,2.74-3.21,1.94-3.63,1.19-3.82.26-3.72-.59-3.68-1.47-3.37-2.16-3.12-2.86-2.9-3.61-2.34-4.01-1.87-4.52-1.36-5.1-.65-5.25.03-4.89.68-4.59,1.34-4.45,1.83-3.8,2.3-3.28,2.88-2.74,3.21-1.94,3.63-1.19,3.82-.24,3.72.59,3.68,1.47,3.37,2.16,3.12,2.86,2.9,3.61,2.34,4.01,1.87,4.52,1.36,5.1Z"/>
  <path class="cls-2" d="M391.08,286.76l3.39,1.52,2.88,2.23,2.46,3,1.87,3.45,1.34,3.94.8,4.55.16,4.61-.49,4.87-1.2,5.15-1.88,4.94-2.29,4.31-2.7,3.75-3.19,3.33-3.33,2.53-3.47,1.83-3.72,1.12-3.63.23-3.65-.61-3.37-1.52-2.9-2.22-2.46-3-1.87-3.45-1.34-3.96-.8-4.54-.16-4.62.51-4.87,1.19-5.15,1.88-4.94,2.29-4.31,2.7-3.75,3.21-3.33,3.32-2.53,3.47-1.81,3.72-1.12,3.65-.24,3.63.61Z"/>
  <path class="cls-2" d="M122.09,108.58l3.77,1.68,3.21,2.41,2.77,3.21,2.13,3.7,1.55,4.21.94,4.82.24,4.9-.47,5.15-1.26,5.43-1.99,5.2-2.46,4.54-2.95,3.94-3.45,3.45-3.65,2.63-3.84,1.88-4.07,1.13-4.03.19-4.05-.72-3.77-1.66-3.23-2.41-2.76-3.21-2.13-3.7-1.55-4.22-.94-4.8-.24-4.92.47-5.13,1.24-5.43,2.01-5.2,2.46-4.54,2.93-3.94,3.47-3.45,3.65-2.63,3.82-1.9,4.08-1.12,4.03-.19,4.05.7Z"/>
  <path class="cls-2" d="M312.23,78.82l4.5,2.55,3.82,2.79,3.25,3.07,2.81,3.45,2.02,3.4,1.33,3.39.63,3.52-.21,3.26-1.01,3.11-1.83,2.72-2.44,2.16-3.18,1.68-3.47,1.05-3.93.51-4.45-.09-4.41-.68-4.57-1.29-4.76-1.99-4.5-2.55-3.84-2.79-3.25-3.07-2.81-3.44-2.01-3.4-1.33-3.4-.63-3.52.21-3.26,1.01-3.11,1.83-2.72,2.44-2.16,3.16-1.68,3.49-1.05,3.93-.51,4.45.09,4.4.68,4.57,1.31,4.78,1.97Z"/>
  <path class="cls-2" d="M200.63,27.45l-.12,2.55-.91,2.51-1.83,2.6-2.36,2.23-3.05,2.13-3.87,2.01-6.28,2.23-7.43,1.5-7.59.44-6.65-.58-4.26-.96-3.49-1.29-2.84-1.55-2.43-2.04-1.52-2.22-.75-2.43.1-2.53.92-2.53,1.83-2.58,2.36-2.23,3.05-2.13,3.86-2.01,6.28-2.25,7.45-1.48,7.59-.45,6.63.58,4.26.98,3.49,1.27,2.84,1.57,2.44,2.04,1.52,2.2.75,2.43Z"/>
  <path class="cls-2" d="M258.05,0l5.93.73,5.06,1.29,4.52,1.88,3.14,2.09,1.61,1.73.85,1.69.23,1.69-.44,1.66-1.05,1.57-1.81,1.52-3.39,1.69-4.71,1.31-5.16.66-5.98-.02-5.95-.73-5.04-1.27-4.52-1.88-3.14-2.11-1.61-1.73-.85-1.68-.23-1.69.44-1.68,1.05-1.55,1.81-1.52,3.37-1.69,4.73-1.33,5.16-.65h5.99Z"/>
  <path class="cls-2" d="M313.71,19.61l6.56,2.41,5.39,2.76,4.68,3.25,3.02,3.09,1.41,2.29.54,2.02-.16,1.85-.91,1.62-1.57,1.38-2.44,1.12-4.24.87-5.67.1-6.02-.73-6.79-1.66-6.56-2.41-5.41-2.76-4.66-3.25-3.04-3.07-1.4-2.3-.54-2.01.16-1.85.91-1.64,1.55-1.36,2.46-1.13,4.22-.86,5.69-.1,6.02.73,6.79,1.64Z"/>
  <path class="cls-2" d="M261.02,28.95l5.16,1.22,4.59,1.59,4.07,1.92,3.82,2.37,2.98,2.48,2.27,2.58,1.69,2.93.77,2.83-.05,2.83-.94,2.67-1.73,2.39-2.62,2.13-3.04,1.62-3.66,1.26-4.41.87-4.48.37-4.85-.14-5.27-.68-5.16-1.22-4.57-1.59-4.08-1.92-3.8-2.37-2.98-2.48-2.29-2.6-1.69-2.91-.77-2.83.05-2.84.96-2.67,1.71-2.37,2.62-2.13,3.05-1.62,3.66-1.26,4.41-.89,4.48-.35,4.85.14,5.25.68Z"/>
  <path class="cls-2" d="M445.17,167.28l1.19,6.68.28,5.92-.56,5.53-1.27,4.14-1.36,2.32-1.57,1.5-1.81.84-2.01.09-2.08-.59-2.29-1.45-3.04-3.09-3.04-4.64-2.48-5.39-2.01-6.47-1.2-6.7-.28-5.92.58-5.53,1.26-4.12,1.36-2.34,1.59-1.5,1.81-.84,1.99-.09,2.09.61,2.29,1.43,3.02,3.09,3.05,4.66,2.46,5.37,2.02,6.49Z"/>
  <path class="cls-2" d="M440.93,262.07c0,14.55-7.1,26.35-15.88,26.35s-15.88-11.8-15.88-26.35,7.1-26.35,15.88-26.35,15.88,11.8,15.88,26.35Z"/>
  <path class="cls-2" d="M283.82,449.55l-.23,1.85-.96,1.85-1.87,1.94-3.63,2.36-5.25,2.18-5.86,1.52-6.93.94-6.98.16-6.04-.58-5.53-1.33-3.94-1.74-2.15-1.62-1.24-1.68-.54-1.78.24-1.85.96-1.85,1.87-1.94,3.63-2.36,5.25-2.18,5.86-1.52,6.93-.96,6.98-.16,6.04.59,5.53,1.31,3.94,1.76,2.15,1.62,1.24,1.68.52,1.78Z"/>
  <path class="cls-2" d="M337.72,413.8l.09,2.44-.61,2.43-1.4,2.5-1.88,2.23-2.48,2.15-3.18,2.06-5.27,2.41-6.32,1.73-6.51.75-5.78-.26-3.72-.72-3.11-1.06-2.58-1.36-2.23-1.81-1.47-2.02-.84-2.29-.09-2.43.61-2.43,1.4-2.51,1.88-2.23,2.5-2.15,3.18-2.06,5.27-2.39,6.3-1.74,6.51-.75,5.78.26,3.72.72,3.11,1.06,2.6,1.38,2.22,1.8,1.48,2.02.82,2.29Z"/>
  <path class="cls-2" d="M173.67,413.07l4.85,1.81,4.22,2.16,3.7,2.51,3.32,2.95,2.53,3.05,1.83,3.14,1.17,3.39.31,3.25-.51,3.23-1.38,2.97-2.08,2.53-2.86,2.16-3.28,1.59-3.79,1.1-4.41.63-4.45.02-4.73-.56-5.01-1.2-4.85-1.8-4.22-2.16-3.7-2.51-3.32-2.97-2.53-3.04-1.83-3.14-1.17-3.39-.31-3.26.51-3.23,1.38-2.97,2.08-2.53,2.86-2.15,3.26-1.59,3.8-1.12,4.41-.61,4.45-.03,4.71.58,5.03,1.19Z"/>
  <path class="cls-2" d="M87.31,368.7l2.23,3.52,1.62,3.52,1.05,3.56.51,3.66-.07,3.4-.61,3.19-1.2,3-1.73,2.56-2.3,2.18-2.74,1.57-2.95.91-3.23.28-3.23-.33-3.28-.92-3.37-1.55-3.09-2.02-2.91-2.56-2.72-3.18-2.25-3.54-1.62-3.52-1.05-3.54-.51-3.66.07-3.4.61-3.21,1.2-3,1.73-2.55,2.3-2.18,2.76-1.57,2.95-.92,3.21-.26,3.25.33,3.28.92,3.35,1.54,3.11,2.04,2.9,2.56,2.74,3.18Z"/>
  <path class="cls-2" d="M120.89,427.59l5.1,3.8,4.01,3.8,3.21,4.07,1.85,3.49.63,2.37-.05,1.92-.63,1.59-1.22,1.19-1.73.8-2.44.37-3.93-.33-4.99-1.38-5.08-2.2-5.51-3.19-5.1-3.8-4.01-3.82-3.23-4.05-1.83-3.49-.63-2.37.05-1.92.63-1.59,1.22-1.2,1.73-.8,2.43-.35,3.94.33,4.99,1.38,5.08,2.18,5.51,3.21Z"/>
  <path class="cls-2" d="M37.69,336.05c0,8.78-4.38,15.88-9.77,15.88s-9.77-7.1-9.77-15.88,4.38-15.88,9.77-15.88,9.77,7.1,9.77,15.88Z"/>
  <path class="cls-2" d="M22.68,273.41c0,11.66-5.08,21.11-11.34,21.11s-11.34-9.46-11.34-21.11,5.08-21.11,11.34-21.11,11.34,9.46,11.34,21.11Z"/>
  <path class="cls-2" d="M28.48,174.19l2.39.89,2.11,1.62,1.92,2.55,1.41,2.91,1.1,3.56.73,4.29.23,6.67-.84,7.54-1.88,7.36-2.56,6.16-2.22,3.75-2.29,2.95-2.34,2.23-2.69,1.69-2.56.77-2.55-.02-2.37-.87-2.13-1.64-1.92-2.53-1.41-2.93-1.1-3.54-.73-4.31-.23-6.67.84-7.54,1.88-7.36,2.56-6.14,2.22-3.77,2.29-2.93,2.36-2.23,2.67-1.69,2.56-.79,2.55.02Z"/>
  <path class="cls-2" d="M47.9,115.39l1.12,1.08.75,1.71.3,2.6-.42,4.24-1.5,5.58-2.27,5.74-3.3,6.39-3.89,6.04-3.84,4.87-4.08,4.08-3.45,2.48-2.41,1.05-1.87.21-1.48-.44-1.13-1.08-.75-1.71-.3-2.62.42-4.22,1.5-5.58,2.29-5.76,3.28-6.39,3.89-6.04,3.84-4.85,4.08-4.08,3.45-2.48,2.41-1.05,1.87-.21,1.5.44Z"/>
  <path class="cls-2" d="M109.37,47.3l.8,1.69.24,2.02-.42,2.51-1.55,3.73-2.9,4.33-3.75,4.1-4.87,4.1-5.34,3.45-4.99,2.41-4.99,1.52-4.03.42-2.51-.33-1.87-.82-1.38-1.27-.82-1.68-.23-2.02.4-2.51,1.57-3.73,2.9-4.33,3.75-4.1,4.85-4.1,5.34-3.47,5.01-2.39,4.99-1.52,4.03-.42,2.51.33,1.87.82,1.38,1.26Z"/>
  <path class="cls-2" d="M345.99,66.86l5.58,4.21,4.36,4.22,3.47,4.54,1.97,3.94.63,2.67-.12,2.18-.75,1.85-1.4,1.41-1.97.96-2.7.47-4.4-.26-5.51-1.41-5.62-2.36-6.04-3.49-5.58-4.21-4.36-4.22-3.47-4.54-1.97-3.94-.63-2.67.1-2.18.77-1.85,1.4-1.41,1.95-.96,2.72-.47,4.4.26,5.51,1.41,5.62,2.36,6.04,3.49Z"/>
  <path class="cls-2" d="M428.89,212.86c0,10.89-4.07,19.72-9.07,19.72s-9.07-8.83-9.07-19.72,4.07-19.72,9.07-19.72,9.07,8.83,9.07,19.72Z"/>
</svg>